<?xml version="1.0" encoding="utf-8"?>
<svg xmlns="http://www.w3.org/2000/svg" viewBox="0 0 260 240">
  <path d="M 255.374 170.235 C 255.193 172.281 255.538 174.022 253.645 176.032 L 239.513 164.498 C 235.129 170.138 231.241 175.498 226.987 180.551 C 203.158 208.853 173.067 226.543 136.337 231.394 C 101.972 235.933 70.587 227.589 44.537 204.114 C 23.937 185.554 12.529 161.891 13.032 133.858 C 13.22 123.409 10.49 115.13 3.984 107.556 C 0.732 103.77 0.848 100.822 5.498 97.934 C 9.716 95.315 13.396 91.833 17.323 88.744 C 19.448 87.071 20.036 85.18 18.644 82.658 C 17.522 80.624 16.751 78.4 15.762 76.288 C 12.389 69.083 12.382 69.093 19.492 65.179 C 23.578 62.929 27.628 60.613 31.738 58.411 C 34.378 56.997 34.92 55.204 34.078 52.241 C 30.528 39.754 30.617 39.687 42.761 35.641 C 50.658 33.011 58.605 30.531 66.514 27.934 C 67.902 27.478 70.104 27.314 70.231 25.798 C 70.714 20.042 74.857 21.007 78.311 21.262 C 93.191 22.365 106.125 15.299 119.813 11.492 C 130.684 8.467 141.382 4.821 152.777 1.256 C 154.525 6.644 156.347 11.602 157.707 16.684 C 158.663 20.254 160.617 21.354 164.174 21.282 C 173.668 21.09 183.173 21.392 192.664 21.139 C 197.109 21.02 198.548 22.726 198.39 26.994 C 198.156 33.317 198.463 39.658 198.311 45.986 C 198.241 48.926 199.207 50.906 201.554 52.758 C 219.996 67.311 230.337 86.432 233.2 109.676 C 233.302 110.499 233.314 111.338 233.306 112.169 C 233.286 114.111 232.267 115.393 230.394 115.646 C 228.327 115.925 228.048 114.23 227.758 112.732 C 226.353 105.485 223.877 98.631 220.355 92.138 C 215.27 82.763 205.8 72.45 199.272 69.323 C 197.895 71.055 198.377 73.122 198.369 75.039 C 198.319 87.869 197.96 100.714 198.425 113.527 C 199.643 147.092 180.089 173.494 146.021 182.784 C 110.396 192.499 78.934 183.731 50.276 161.934 C 40.133 154.219 31.597 144.877 23.732 134.896 C 22.641 133.51 21.905 131.667 19.382 131.141 C 17.182 135.177 18.896 139.398 19.792 143.033 C 28.092 176.705 48.853 199.347 82.157 208.917 C 121.691 220.277 156.302 208.423 187.317 183.397 C 197.644 175.064 205.864 164.775 213.279 153.84 C 216.775 148.686 216.589 148.377 210.875 145.496 C 207.396 143.743 203.535 142.61 199.955 139.186 L 259.281 105.399 C 257.916 127.951 256.649 148.879 255.374 170.235 Z M 188.618 84.764 C 188.936 83.837 189.528 82.91 189.53 81.982 C 189.586 66.01 189.566 50.037 189.572 34.065 C 189.573 31.32 188.216 30.302 185.509 30.342 C 178.517 30.447 171.523 30.406 164.529 30.367 C 138.229 30.221 111.924 30.934 85.628 29.937 C 81.166 29.767 78.751 31.311 79.296 36.327 C 79.671 39.782 79.366 43.312 79.366 46.809 L 79.365 86.773 C 81.307 86.239 81.623 84.796 82.319 83.778 C 98.541 60.06 127.945 50.208 154.935 59.418 C 168.837 64.163 179.533 73.038 188.618 84.764 Z M 114.219 72.099 C 113.328 72.548 112.437 72.998 111.546 73.451 C 88.563 85.165 77.712 111.873 86.066 136.167 C 94.433 160.5 119.419 175.23 144.677 169.857 C 165.182 165.494 178.795 152.536 184.24 132.422 C 189.731 112.142 183.816 94.231 168.055 80.57 C 152.47 67.063 134.406 63.993 114.219 72.099 Z M 42.167 48.606 C 50.939 75.141 56.251 102.928 70.179 128.345 L 70.179 36.441 C 60.93 38.941 52.545 41.466 44.335 44.569 C 42.831 45.138 41.736 46.081 42.167 48.606 Z M 38.367 103.742 C 46.865 120.873 56.733 136.982 72.003 149.084 C 68.425 141.938 63.782 135.474 60.123 128.4 C 51.339 111.422 46.43 93.097 40.983 74.95 C 37.928 64.78 38.074 64.92 29.048 69.976 C 24.986 72.252 24.188 74.684 26.306 78.816 C 30.403 86.806 34.154 94.975 38.367 103.742 Z M 83.022 170.848 L 84.298 170.714 C 84.207 170.58 84.146 170.386 84.018 170.319 C 76.547 166.433 70.351 160.863 64.258 155.193 C 48.511 140.538 37.391 122.665 28.328 103.353 C 27.11 100.759 26.448 97.65 23.685 96.054 C 20.872 97.041 19.075 99.108 16.885 100.592 C 13.409 102.946 13.088 105.428 15.708 108.858 C 21.568 116.533 26.848 124.665 32.904 132.176 C 46.367 148.873 62.244 162.61 83.022 170.848 Z M 137.359 15.384 L 122.444 20.178 C 129.854 21.203 137.104 21.234 144.354 21.178 C 145.92 21.167 147.958 21.725 148.626 19.625 C 149.268 17.611 148.441 15.639 147.341 13.972 C 146.11 12.104 144.389 13.196 142.847 13.648 C 141.257 14.113 139.677 14.611 137.359 15.384 Z" style="fill: rgb(192, 225, 210);"/>
  <path d="M 139.158 149.201 C 145.053 139.92 150.014 130.538 154.546 120.659 C 157.463 121.824 158.011 124.459 159.148 126.496 C 162.225 132.006 165.079 137.64 168.081 143.192 C 169.213 145.286 169.499 147.118 167.687 149.078 C 158.803 158.687 147.555 162.767 134.779 163.331 C 134.145 163.359 133.465 163.11 132.863 162.855 C 132.44 162.675 132.114 162.265 131.579 161.821 C 133.403 157.314 136.631 153.671 139.158 149.201 M 90.219 122.132 C 89.712 111.611 91.982 102.317 98.348 92.557 C 106.936 107.019 113.256 121.657 123.243 133.544 C 122.721 135.053 121.889 135.328 121.073 135.304 C 112.763 135.061 104.451 134.797 96.143 134.468 C 93.899 134.379 92.433 133.174 91.97 130.885 C 91.41 128.118 90.83 125.355 90.22 122.132 M 173.044 141.724 C 170.536 144.085 169.972 141.754 169.316 140.459 C 162.642 127.269 156.176 113.966 147.071 102.414 C 147.741 100.559 149.064 101.036 150.139 101.043 C 157.459 101.091 164.78 101.287 172.099 101.209 C 175.306 101.175 176.941 102.491 177.806 105.514 C 181.431 118.169 180.208 130.164 173.044 141.724 M 113.478 114.34 C 109.554 107.36 105.868 100.65 102.17 93.948 C 100.515 90.949 100.815 88.718 103.572 86.126 C 111.565 78.616 120.964 74.597 131.72 73.45 C 133.652 73.244 135.692 72.8 137.427 74.054 C 138.176 75.397 137.473 76.375 136.84 77.354 C 129.51 88.674 122.314 100.067 116.937 112.5 C 116.413 113.713 116.384 116.386 113.478 114.34 M 95.411 139.553 C 95.402 136.015 97.875 137.174 99.384 137.216 C 105.536 137.388 111.678 137.906 117.829 138.084 C 125.964 138.319 134.106 138.374 141.701 136.253 C 142.824 136.952 142.835 137.688 142.541 138.253 C 138.471 146.093 133.551 153.417 128.781 160.831 C 127.328 163.088 125.288 162.281 123.399 161.743 C 111.146 158.253 101.665 151.2 95.411 139.553 M 131.955 98.835 C 130.282 98.939 129.014 99.915 127.325 98.535 C 131.113 90.337 136.275 82.851 141.472 75.393 C 142.192 74.359 143.389 74.257 144.629 74.349 C 155.092 75.126 170.786 87.569 174.511 98.609 C 160.32 99.147 146.281 96.174 131.955 98.836" style="fill: rgb(192, 225, 210);"/>
</svg>