<svg xmlns="http://www.w3.org/2000/svg" viewBox="155.93 164.85 257.02 229.78">
  <path d="M 296.452 358.587 C 313.355 334.927 327.579 311.011 340.573 285.827 C 348.937 288.797 350.509 295.515 353.769 300.707 C 362.592 314.753 370.774 329.116 379.382 343.269 C 382.627 348.606 383.447 353.277 378.252 358.274 C 352.778 382.769 320.527 393.169 283.897 394.607 C 282.079 394.678 280.129 394.044 278.403 393.393 C 277.19 392.935 276.256 391.89 274.72 390.757 C 279.951 379.268 289.205 369.981 296.452 358.587 M 156.13 289.581 C 154.676 262.761 161.186 239.068 179.438 214.189 C 204.063 251.055 222.183 288.372 250.819 318.673 C 249.323 322.521 246.937 323.221 244.597 323.16 C 220.77 322.541 196.938 321.867 173.117 321.029 C 166.683 320.803 162.478 317.73 161.151 311.896 C 159.546 304.842 157.882 297.798 156.133 289.581 M 393.611 339.527 C 386.421 345.544 384.803 339.602 382.923 336.301 C 363.787 302.677 345.246 268.765 319.14 239.316 C 321.062 234.588 324.854 235.804 327.937 235.821 C 348.926 235.943 369.915 236.444 390.901 236.244 C 400.098 236.159 404.785 239.513 407.266 247.22 C 417.659 279.48 414.153 310.057 393.611 339.527 M 222.821 269.718 C 211.569 251.924 201.001 234.819 190.398 217.735 C 185.652 210.09 186.513 204.401 194.418 197.794 C 217.335 178.65 244.285 168.404 275.126 165.481 C 280.665 164.955 286.514 163.823 291.488 167.021 C 293.636 170.443 291.62 172.937 289.805 175.433 C 268.787 204.289 248.155 233.334 232.737 265.028 C 231.235 268.12 231.152 274.935 222.821 269.718 M 171.017 333.992 C 170.992 324.974 178.083 327.927 182.409 328.034 C 200.049 328.473 217.658 329.793 235.295 330.247 C 258.622 330.847 281.966 330.986 303.744 325.581 C 306.964 327.36 306.994 329.237 306.151 330.678 C 294.482 350.664 280.375 369.335 266.699 388.234 C 262.531 393.987 256.684 391.93 251.266 390.559 C 216.135 381.663 188.949 363.682 171.017 333.992 M 275.8 230.192 C 271.003 230.457 267.366 232.946 262.524 229.428 C 273.385 208.53 288.185 189.446 303.086 170.433 C 305.15 167.798 308.583 167.538 312.14 167.772 C 342.139 169.753 387.138 201.473 397.818 229.615 C 357.128 230.988 316.874 223.409 275.8 230.195" style="fill: rgb(192, 225, 210);"/>
</svg>