<svg xmlns="http://www.w3.org/2000/svg" xml:space="preserve" viewBox="155.67 163.78 714.07 231.35">
  <path d="M409.297 332.767c-.181 2.046.164 3.787-1.729 5.797l-14.132-11.534c-4.384 5.64-8.272 11-12.526 16.053-23.829 28.302-53.92 45.992-90.65 50.843-34.365 4.539-65.75-3.805-91.8-27.28-20.6-18.56-32.008-42.223-31.505-70.256.188-10.449-2.542-18.728-9.048-26.302-3.252-3.786-3.136-6.734 1.514-9.622 4.218-2.619 7.898-6.101 11.825-9.19 2.125-1.673 2.713-3.564 1.321-6.086-1.122-2.034-1.893-4.258-2.882-6.37-3.373-7.205-3.38-7.195 3.73-11.109 4.086-2.25 8.136-4.566 12.246-6.768 2.64-1.414 3.182-3.207 2.34-6.17-3.55-12.487-3.461-12.554 8.683-16.6 7.897-2.63 15.844-5.11 23.753-7.707 1.388-.456 3.59-.62 3.717-2.136.483-5.756 4.626-4.791 8.08-4.536 14.88 1.103 27.814-5.963 41.502-9.77 10.871-3.025 21.569-6.671 32.964-10.236 1.748 5.388 3.57 10.346 4.93 15.428.956 3.57 2.91 4.67 6.467 4.598 9.494-.192 18.999.11 28.49-.143 4.445-.119 5.884 1.587 5.726 5.855-.234 6.323.073 12.664-.079 18.992-.07 2.94.896 4.92 3.243 6.772 18.442 14.553 28.783 33.674 31.646 56.918.102.823.114 1.662.106 2.493-.02 1.942-1.039 3.224-2.912 3.477-2.067.279-2.346-1.416-2.636-2.914-1.405-7.247-3.881-14.101-7.403-20.594-5.085-9.375-14.555-19.688-21.083-22.815-1.377 1.732-.895 3.799-.903 5.716-.05 12.83-.409 25.675.056 38.488 1.218 33.565-18.336 59.967-52.404 69.257-35.625 9.715-67.087.947-95.745-20.85-10.143-7.715-18.679-17.057-26.544-27.038-1.091-1.386-1.827-3.229-4.35-3.755-2.2 4.036-.486 8.257.41 11.892 8.3 33.672 29.061 56.314 62.365 65.884 39.534 11.36 74.145-.494 105.16-25.52 10.327-8.333 18.547-18.622 25.962-29.557 3.496-5.154 3.31-5.463-2.404-8.344-3.479-1.753-7.34-2.886-10.92-6.31l59.326-33.787c-1.365 22.552-2.632 43.48-3.907 64.836m-66.756-85.471c.318-.927.91-1.854.912-2.782.056-15.972.036-31.945.042-47.917.001-2.745-1.356-3.763-4.063-3.723-6.992.105-13.986.064-20.98.025-26.3-.146-52.605.567-78.901-.43-4.462-.17-6.877 1.374-6.332 6.39.375 3.455.07 6.985.07 10.482l-.001 39.964c1.942-.534 2.258-1.977 2.954-2.995 16.222-23.718 45.626-33.57 72.616-24.36 13.902 4.745 24.598 13.62 33.683 25.346m-74.399-12.665q-1.337.673-2.673 1.352c-22.983 11.714-33.834 38.422-25.48 62.716 8.367 24.333 33.353 39.063 58.611 33.69 20.505-4.363 34.118-17.321 39.563-37.435 5.491-20.28-.424-38.191-16.185-51.852-15.585-13.507-33.649-16.577-53.836-8.471m-72.052-23.493c8.772 26.535 14.084 54.322 28.012 79.739v-91.904c-9.249 2.5-17.634 5.025-25.844 8.128-1.504.569-2.599 1.512-2.168 4.037m-3.8 55.136c8.498 17.131 18.366 33.24 33.636 45.342-3.578-7.146-8.221-13.61-11.88-20.684-8.784-16.978-13.693-35.303-19.14-53.45-3.055-10.17-2.909-10.03-11.935-4.974-4.062 2.276-4.86 4.708-2.742 8.84 4.097 7.99 7.848 16.159 12.061 24.926m44.655 67.106 1.276-.134c-.091-.134-.152-.328-.28-.395-7.471-3.886-13.667-9.456-19.76-15.126-15.747-14.655-26.867-32.528-35.93-51.84-1.218-2.594-1.88-5.703-4.643-7.299-2.813.987-4.61 3.054-6.8 4.538-3.476 2.354-3.797 4.836-1.177 8.266 5.86 7.675 11.14 15.807 17.196 23.318 13.463 16.697 29.34 30.434 50.118 38.672m54.337-155.464-14.915 4.794c7.41 1.025 14.66 1.056 21.91 1 1.566-.011 3.604.547 4.272-1.553.642-2.014-.185-3.986-1.285-5.653-1.231-1.868-2.952-.776-4.494-.324-1.59.465-3.17.963-5.488 1.736m414.478 71.995c20.795 8.88 21.865 35.196 10.664 47.779-8.722 9.798-25.186 12.743-38.122 6.255-11.656-5.847-17.778-19.929-14.584-33.545 3.196-13.621 14.472-22.556 28.482-22.753 4.556-.064 8.96.396 13.56 2.264m-26.447 19.02c-.511 1.404-1.142 2.777-1.513 4.218-2.221 8.617 2.247 17.614 10.074 20.401 8.136 2.898 16.56-.727 19.873-8.55 3.71-8.763.466-18.786-7.415-22.904-7.478-3.906-15.748-1.446-21.02 6.835M564.78 252.64c13.558-7.678 28.725-6.442 38.724 2.947 10.272 9.644 12.07 27.87 3.887 39.406-8.75 12.335-26.348 16.158-40.246 8.741-19.274-10.285-20.695-37.26-2.364-51.095m32.897 21.436c-.287-1.125-.46-2.295-.88-3.368-3.464-8.826-12.57-12.82-20.714-9.128-9.042 4.1-12.572 15.557-7.614 24.717 4.365 8.064 14.084 10.784 21.875 5.974 6.48-4 8.033-10.239 7.333-18.195m-92.619-25.495c3.062.062 3.138 1.93 3.14 3.854.002 4.663.098 9.329-.018 13.988-.073 2.944 1.052 4.269 4.083 4.2 4.827-.11 9.66-.096 14.487.03 3.003.079 4.209-1.203 4.148-4.16-.093-4.495.12-8.996-.026-13.488-.102-3.146 1.177-4.663 4.303-4.7 1.497-.017 2.997-.05 4.488-.17 4.224-.34 5.799 1.344 5.735 5.774-.224 15.651-.154 31.309.017 46.961.043 4.002-1.113 6.038-5.38 5.512a14 14 0 0 0-3.492-.004c-4.393.578-6.007-1.278-5.723-5.657.292-4.477.006-8.99.062-13.485.034-2.695-1.093-3.969-3.87-3.926-4.828.074-9.66.082-14.487-.032-3.298-.077-4.38 1.53-4.305 4.61.113 4.66-.064 9.327.05 13.987.076 3.093-1.018 4.422-4.316 4.542-10.16.367-10.14.486-10.138-9.85.003-13.49-.031-26.98-.027-40.469.003-7.47.024-7.47 7.353-7.511 1.166-.007 2.331-.009 3.916-.005m-17.629 24.581c-2.69 10.979-9.975 16.664-21.307 17.139-3.798.158-8.438-1.515-11.174.755-2.927 2.429-.718 7.207-1.066 10.938-.284 3.043-1.389 4.307-4.605 4.405-10.195.31-10.207.429-10.214-9.79-.01-13.971.155-27.946-.074-41.915-.08-4.825 1.619-6.42 6.383-6.202 6.97.32 13.97-.115 20.952.035 14.238.307 22.997 10.426 21.105 24.635m-14.362-1.573c1.072-6.923-2.32-10.635-10.217-11.183-8.124-.564-9.442.608-9.474 8.45a166 166 0 0 0 .052 5.464c.035 1.176.253 2.274 1.396 2.99 4.337 2.715 15.335-.336 18.243-5.72m294.387 1.729c4.82 2.567 2.745 6.67 2.438 9.925-.308 3.253-3.69 2.001-5.808 2.074-4.994.171-9.999.154-14.995.044-2.92-.064-4.065 1.058-4.324 4.05-.347 4.02-.105 7.983.141 11.968.215 3.477-1.023 5.052-4.865 5.056-9.36.009-9.368.187-9.372-8.93-.006-14.499.133-28.999-.083-43.493-.06-4.046 1.225-5.807 5.277-5.796 10.997.03 21.995-.029 32.992-.118 6.277-.051 4.09 4.64 4.517 7.876.472 3.578-1.226 4.605-4.638 4.479-5.99-.223-11.997-.126-17.995-.036-5.882.088-5.994.59-5.875 8.046.078 4.955 3.008 5.14 6.668 5.013 5.156-.178 10.318-.172 15.922-.158m88.385-23.796c4.729-2.275 9.238-1.377 13.383-1.162 1.1 1.986.137 2.885-.417 3.842-4.17 7.197-8.049 14.59-12.635 21.513-5.029 7.59-8.231 15.387-7.034 24.714.312 2.427 1.419 6.057-1.4 7.302-3.455 1.527-7.514.754-11.303.258-.498-.065-.996-.784-1.323-1.306-.246-.393-.373-.986-.29-1.44 3.32-18.07-8.517-30.602-16.27-44.626-1.669-3.019-3.784-5.818-4.797-9.174 8.031-3.63 14.314-1.685 18.371 5.397 3.112 5.434 6.382 10.779 9.865 16.64 5.608-7.157 9.026-14.775 13.85-21.958m-195.187-.817c2.89 3.251 1.673 6.836 1.328 10.148-.234 2.25-2.743 2.003-4.536 1.991-12.448-.083-12.435-.098-12.4 12.493.024 8.99-.145 17.984.073 26.97.106 4.345-1.036 6.786-5.87 6.043a8.4 8.4 0 0 0-2.491-.002c-4.991.746-6.227-1.646-6.117-6.279.26-10.981-.083-21.977.154-32.96.094-4.34-.958-6.686-5.757-6.241-1.797.166-3.688-.543-5.463-.305-4.777.64-6.205-1.029-6.255-5.982-.048-4.873 1.06-6.293 6.019-6.163 13.629.357 27.273.143 41.315.287m132.964 13.85c.376 9.045.572 17.687-.227 26.31-.333 3.602.93 5.183 4.715 5.059 6.145-.201 12.31.138 18.449-.14 5.397-.245 4.616 3.32 4.743 6.633.134 3.504-.109 6.128-4.861 6.018-10.634-.247-21.28-.179-31.917-.021-3.649.054-4.97-1.23-4.938-4.916.143-16.124.163-32.251.015-48.376-.034-3.696 1.322-5.21 4.896-5.046 1.659.076 3.325.05 4.986.012 3.197-.074 4.408 1.29 4.083 4.6-.306 3.12.023 6.304.056 9.867"/>
  <path d="M292.737 312.766c5.895-9.281 10.856-18.663 15.388-28.542 2.917 1.165 3.465 3.8 4.602 5.837 3.077 5.51 5.931 11.144 8.933 16.696 1.132 2.094 1.418 3.926-.394 5.886-8.884 9.609-20.132 13.689-32.908 14.253-.634.028-1.314-.221-1.916-.476-.423-.18-.749-.59-1.284-1.034 1.824-4.507 5.052-8.15 7.579-12.62m-48.939-27.069c-.507-10.521 1.763-19.815 8.129-29.575 8.588 14.462 14.908 29.1 24.895 40.987-.522 1.509-1.354 1.784-2.17 1.76-8.31-.243-16.622-.507-24.93-.836-2.244-.089-3.71-1.294-4.173-3.583-.56-2.767-1.14-5.53-1.75-8.753m82.824 19.592c-2.508 2.361-3.072.03-3.728-1.265-6.674-13.19-13.14-26.493-22.245-38.045.67-1.855 1.993-1.378 3.068-1.371 7.32.048 14.641.244 21.96.166 3.207-.034 4.842 1.282 5.707 4.305 3.625 12.655 2.402 24.65-4.762 36.21m-59.566-27.384c-3.924-6.98-7.61-13.69-11.308-20.392-1.655-2.999-1.355-5.23 1.402-7.822 7.993-7.51 17.392-11.529 28.148-12.676 1.932-.206 3.972-.65 5.707.604.749 1.343.046 2.321-.587 3.3-7.33 11.32-14.526 22.713-19.903 35.146-.524 1.213-.553 3.886-3.459 1.84m-18.067 25.213c-.009-3.538 2.464-2.379 3.973-2.337 6.152.172 12.294.69 18.445.868 8.135.235 16.277.29 23.872-1.831 1.123.699 1.134 1.435.84 2-4.07 7.84-8.99 15.164-13.76 22.578-1.453 2.257-3.493 1.45-5.382.912-12.253-3.49-21.734-10.543-27.988-22.19m36.544-40.718c-1.673.104-2.941 1.08-4.63-.3 3.788-8.198 8.95-15.684 14.147-23.142.72-1.034 1.917-1.136 3.157-1.044 10.463.777 26.157 13.22 29.882 24.26-14.191.538-28.23-2.435-42.556.227"/>
</svg>